<svg width="258" height="39" viewBox="0 0 258 39" fill="none" xmlns="http://www.w3.org/2000/svg">
<path d="M125.03 32.0507C125.359 31.9909 125.867 31.9312 126.375 31.9312C127.123 31.9312 127.601 32.0507 127.96 32.3198C128.259 32.5291 128.438 32.8281 128.438 33.2467C128.438 33.7549 128.08 34.1735 127.452 34.3828V34.4127C127.99 34.5323 128.648 34.9509 128.648 35.6983C128.648 36.1468 128.438 36.4757 128.169 36.7448C127.781 37.0737 127.123 37.2232 126.196 37.2232C125.688 37.2232 125.299 37.1933 125.06 37.1634V32.0507H125.03ZM125.777 34.1735H126.465C127.243 34.1735 127.721 33.8147 127.721 33.3065C127.721 32.7085 127.213 32.4693 126.465 32.4693C126.136 32.4693 125.927 32.4992 125.807 32.5291V34.1735H125.777ZM125.777 36.6551C125.927 36.685 126.136 36.685 126.405 36.685C127.183 36.685 127.87 36.4458 127.87 35.6684C127.87 34.9509 127.183 34.6818 126.375 34.6818H125.748V36.6551H125.777Z" fill="#231F20"/>
<path d="M133.102 36.1471C133.102 36.5358 133.102 36.8647 133.132 37.1637H132.474L132.445 36.5657H132.415C132.205 36.8647 131.787 37.2534 131.039 37.2534C130.382 37.2534 129.604 36.9245 129.604 35.6389V33.4563H130.352V35.5193C130.352 36.2368 130.591 36.7152 131.279 36.7152C131.787 36.7152 132.146 36.3863 132.265 36.0873C132.295 35.9977 132.325 35.8482 132.325 35.7286V33.4563H133.072V36.1471H133.102Z" fill="#231F20"/>
<path d="M135.165 32.4098C135.165 32.649 134.986 32.8284 134.687 32.8284C134.418 32.8284 134.239 32.649 134.239 32.4098C134.239 32.1706 134.448 31.9912 134.717 31.9912C134.986 31.9912 135.165 32.1706 135.165 32.4098ZM134.328 33.4562H135.076V37.1636H134.328V33.4562Z" fill="#231F20"/>
<path d="M137.079 31.7222H136.332V37.1637H137.079V31.7222Z" fill="#231F20"/>
<path d="M141.923 31.6923V36.177C141.923 36.5059 141.923 36.8946 141.953 37.1337H141.265L141.235 36.476H141.205C140.966 36.8946 140.458 37.1935 139.8 37.1935C138.813 37.1935 138.036 36.4461 138.036 35.3099C138.036 34.0841 138.873 33.3068 139.89 33.3068C140.517 33.3068 140.936 33.5758 141.145 33.8748H141.175V31.6624H141.923V31.6923ZM141.145 34.9512C141.145 34.8615 141.145 34.7419 141.115 34.6821C140.996 34.2635 140.607 33.9047 140.039 33.9047C139.262 33.9047 138.813 34.5326 138.813 35.3398C138.813 36.0873 139.232 36.7152 140.039 36.7152C140.547 36.7152 140.996 36.4162 141.145 35.9079C141.175 35.8182 141.175 35.7285 141.175 35.6089V34.9512H141.145Z" fill="#231F20"/>
<path d="M143.985 32.4098C143.985 32.649 143.806 32.8284 143.507 32.8284C143.238 32.8284 143.059 32.649 143.059 32.4098C143.059 32.1706 143.268 31.9912 143.537 31.9912C143.806 31.9912 143.985 32.1706 143.985 32.4098ZM143.148 33.4562H143.896V37.1636H143.148V33.4562Z" fill="#231F20"/>
<path d="M145.151 34.4428C145.151 34.0541 145.151 33.7551 145.122 33.4263H145.779L145.809 34.0541H145.839C146.048 33.6953 146.527 33.3665 147.214 33.3665C147.783 33.3665 148.679 33.6654 148.679 34.9511V37.1635H147.932V35.0109C147.932 34.4129 147.693 33.9046 146.975 33.9046C146.467 33.9046 146.108 34.2335 145.959 34.5923C145.929 34.682 145.899 34.8016 145.899 34.9212V37.1635H145.151V34.4428Z" fill="#231F20"/>
<path d="M153.433 33.456C153.404 33.7251 153.404 34.0241 153.404 34.4726V36.6253C153.404 37.4923 153.224 38.0006 152.806 38.3295C152.417 38.6583 151.819 38.7779 151.311 38.7779C150.802 38.7779 150.264 38.6583 149.935 38.479L150.115 37.9707C150.384 38.1202 150.802 38.2697 151.341 38.2697C152.118 38.2697 152.656 37.9109 152.656 36.984V36.5655H152.626C152.387 36.9242 151.938 37.1933 151.311 37.1933C150.294 37.1933 149.547 36.416 149.547 35.3695C149.547 34.1138 150.473 33.3962 151.4 33.3962C152.118 33.3962 152.507 33.7251 152.686 34.054H152.716L152.746 33.4859H153.433V33.456ZM152.656 34.9211C152.656 34.8015 152.656 34.7118 152.626 34.6221C152.477 34.2334 152.118 33.9045 151.58 33.9045C150.862 33.9045 150.354 34.4427 150.354 35.3097C150.354 36.0273 150.772 36.6552 151.58 36.6552C152.028 36.6552 152.447 36.3861 152.626 35.9675C152.656 35.8479 152.686 35.7283 152.686 35.6087V34.9211H152.656Z" fill="#231F20"/>
<path d="M158.755 37.1637L158.695 36.6853H158.666C158.426 36.9843 157.978 37.2533 157.41 37.2533C156.573 37.2533 156.154 36.7152 156.154 36.177C156.154 35.2801 157.051 34.8017 158.636 34.8017V34.712C158.636 34.413 158.546 33.8449 157.709 33.8449C157.32 33.8449 156.931 33.9645 156.632 34.114L156.453 33.6655C156.782 33.4563 157.29 33.3367 157.798 33.3367C159.054 33.3367 159.383 34.114 159.383 34.8615V36.2368C159.383 36.5657 159.413 36.8647 159.443 37.1338H158.755V37.1637ZM158.636 35.2502C157.828 35.2203 156.872 35.3698 156.872 36.0873C156.872 36.5358 157.2 36.7451 157.589 36.7451C158.127 36.7451 158.456 36.4461 158.576 36.1172C158.606 36.0574 158.606 35.9677 158.606 35.9079V35.2502H158.636Z" fill="#231F20"/>
<path d="M162.313 36.3562C162.642 36.5356 163.121 36.6851 163.659 36.6851C164.406 36.6851 164.855 36.3263 164.855 35.7882C164.855 35.3098 164.556 35.0407 163.778 34.7716C162.851 34.4726 162.253 34.0242 162.253 33.3066C162.253 32.4993 163.001 31.9014 164.107 31.9014C164.705 31.9014 165.124 32.021 165.363 32.1406L165.154 32.6787C164.974 32.589 164.586 32.4395 164.047 32.4395C163.27 32.4395 162.971 32.8581 162.971 33.2169C162.971 33.6953 163.33 33.9345 164.107 34.2035C165.094 34.5324 165.572 34.951 165.572 35.7284C165.572 36.5356 164.914 37.2233 163.569 37.2233C163.001 37.2233 162.403 37.0738 162.104 36.8944L162.313 36.3562Z" fill="#231F20"/>
<path d="M171.462 34.8912C171.432 34.1737 171.372 33.3066 171.372 32.6489H171.342C171.133 33.2468 170.894 33.9046 170.625 34.6222L169.608 37.1336H169.04L168.113 34.682C167.844 33.9644 167.605 33.2767 167.456 32.6788H167.426C167.396 33.3365 167.366 34.2036 167.306 34.9809L167.157 37.1934H166.439L166.828 32.021H167.784L168.771 34.5325C169.01 35.1603 169.22 35.7284 169.339 36.2666H169.369C169.518 35.7284 169.728 35.1603 169.967 34.5325L170.984 32.021H171.94L172.299 37.1934H171.581L171.462 34.8912Z" fill="#231F20"/>
<path d="M174.302 35.5192L173.704 37.1636H172.927L174.87 31.9912H175.767L177.741 37.1636H176.963L176.365 35.5192H174.302ZM176.186 35.0109L175.618 33.516C175.498 33.1871 175.409 32.8583 175.319 32.5593H175.289C175.199 32.8583 175.11 33.1871 174.99 33.4861L174.422 34.981H176.186V35.0109Z" fill="#231F20"/>
<path d="M178.608 32.0507C178.996 31.9909 179.505 31.9312 180.043 31.9312C180.85 31.9312 181.358 32.0507 181.717 32.3497C182.016 32.5889 182.166 32.9477 182.166 33.3364C182.166 34.024 181.687 34.4725 181.089 34.6519V34.6818C181.538 34.8313 181.807 35.1901 181.926 35.7282C182.106 36.4458 182.255 36.9541 182.375 37.1634H181.597C181.508 37.0139 181.388 36.5654 181.209 35.9375C181.029 35.22 180.73 34.9509 180.043 34.921H179.355V37.1634H178.608V32.0507ZM179.355 34.4127H180.103C180.91 34.4127 181.388 34.024 181.388 33.4261C181.388 32.7683 180.85 32.4693 180.073 32.4693C179.714 32.4693 179.445 32.4992 179.325 32.5291V34.4127H179.355Z" fill="#231F20"/>
<path d="M184.378 32.5593H182.614V31.9912H186.86V32.5593H185.125V37.1636H184.378V32.5593Z" fill="#231F20"/>
<path d="M190.059 32.5593H188.325V31.9912H192.57V32.5593H190.806V37.1636H190.059V32.5593Z" fill="#231F20"/>
<path d="M196.308 35.28C196.308 36.6553 195.261 37.2532 194.245 37.2532C193.138 37.2532 192.271 36.5058 192.271 35.3397C192.271 34.084 193.168 33.3665 194.304 33.3665C195.5 33.3665 196.308 34.1438 196.308 35.28ZM193.049 35.3098C193.049 36.1171 193.557 36.745 194.304 36.745C195.022 36.745 195.56 36.147 195.56 35.3098C195.56 34.682 195.201 33.8747 194.334 33.8747C193.407 33.8747 193.049 34.5923 193.049 35.3098Z" fill="#231F20"/>
<path d="M197.264 34.4429C197.264 34.0542 197.264 33.7552 197.234 33.4264H197.892L197.922 34.0243H197.952C198.191 33.6655 198.55 33.3367 199.238 33.3367C199.806 33.3367 200.224 33.6357 200.404 34.0841H200.434C200.553 33.8748 200.733 33.7253 200.882 33.6058C201.121 33.4264 201.39 33.3367 201.809 33.3367C202.347 33.3367 203.154 33.6655 203.154 34.9512V37.1338H202.407V35.0409C202.407 34.3233 202.108 33.9047 201.51 33.9047C201.091 33.9047 200.762 34.1738 200.613 34.5326C200.583 34.6223 200.553 34.7419 200.553 34.8615V37.1637H199.806V34.9213C199.806 34.3233 199.507 33.9047 198.939 33.9047C198.46 33.9047 198.131 34.2336 198.012 34.5924C197.982 34.6821 197.952 34.8017 197.952 34.9213V37.1637H197.205V34.4429H197.264Z" fill="#231F20"/>
<path d="M208.117 35.28C208.117 36.6553 207.071 37.2532 206.054 37.2532C204.948 37.2532 204.081 36.5058 204.081 35.3397C204.081 34.084 204.978 33.3665 206.144 33.3665C207.31 33.3665 208.117 34.1438 208.117 35.28ZM204.829 35.3098C204.829 36.1171 205.337 36.745 206.084 36.745C206.802 36.745 207.34 36.147 207.34 35.3098C207.34 34.682 206.981 33.8747 206.114 33.8747C205.217 33.8747 204.829 34.5923 204.829 35.3098Z" fill="#231F20"/>
<path d="M209.044 34.5924C209.044 34.1439 209.044 33.7851 209.014 33.4264H209.672L209.702 34.1439H209.732C209.911 33.6356 210.36 33.3367 210.868 33.3367C210.958 33.3367 211.017 33.3367 211.077 33.3666V33.9944C210.987 33.9645 210.928 33.9645 210.808 33.9645C210.27 33.9645 209.911 34.3233 209.792 34.8316C209.762 34.9213 209.762 35.0409 209.762 35.1605V37.1338H209.014V34.5924H209.044Z" fill="#231F20"/>
<path d="M211.885 34.5924C211.885 34.1439 211.885 33.7851 211.855 33.4264H212.512L212.542 34.1439H212.572C212.752 33.6356 213.2 33.3367 213.708 33.3367C213.798 33.3367 213.858 33.3367 213.918 33.3666V33.9944C213.828 33.9645 213.768 33.9645 213.649 33.9645C213.11 33.9645 212.752 34.3233 212.632 34.8316C212.602 34.9213 212.602 35.0409 212.602 35.1605V37.1338H211.855V34.5924H211.885Z" fill="#231F20"/>
<path d="M218.313 35.28C218.313 36.6553 217.266 37.2532 216.25 37.2532C215.143 37.2532 214.276 36.5058 214.276 35.3397C214.276 34.084 215.173 33.3665 216.309 33.3665C217.505 33.3665 218.313 34.1438 218.313 35.28ZM215.054 35.3098C215.054 36.1171 215.562 36.745 216.309 36.745C217.027 36.745 217.565 36.147 217.565 35.3098C217.565 34.682 217.206 33.8747 216.339 33.8747C215.442 33.8747 215.054 34.5923 215.054 35.3098Z" fill="#231F20"/>
<path d="M219.509 33.4563L220.047 35.3399C220.166 35.7585 220.286 36.1471 220.346 36.5358H220.376C220.465 36.1471 220.615 35.7585 220.734 35.3698L221.422 33.4862H222.05L222.678 35.3399C222.827 35.7884 222.947 36.177 223.037 36.5657H223.066C223.126 36.177 223.246 35.7884 223.395 35.3698L223.993 33.5161H224.741L223.425 37.2235H222.738L222.11 35.4595C221.96 35.0409 221.841 34.6821 221.751 34.2337H221.721C221.631 34.6821 221.482 35.0708 221.332 35.4595L220.675 37.2235H219.987L218.731 33.5161H219.509V33.4563Z" fill="#231F20"/>
<path d="M174.631 4.63403H125.628V28.5527H174.631V4.63403Z" fill="#3F3E91"/>
<path d="M223.515 4.63403H174.511V28.5527H223.515V4.63403Z" fill="white"/>
<path d="M224.143 29.0612H125V4.12598H224.143V29.0612ZM126.136 28.0147H222.977V5.14252H126.136V28.0147Z" fill="#E73633"/>
<path d="M141.205 16.8325C141.205 18.148 140.936 19.3141 140.398 20.3306C139.86 21.3472 139.172 22.1544 138.335 22.6926C137.707 23.1112 137.019 23.4101 136.272 23.5596C135.524 23.739 134.627 23.7988 133.611 23.7988H129.036V9.8064H133.701C134.747 9.8064 135.644 9.89609 136.421 10.1054C137.169 10.2848 137.826 10.5838 138.335 10.9126C139.232 11.5106 139.919 12.3179 140.428 13.3045C140.936 14.2912 141.205 15.4871 141.205 16.8325ZM137.767 16.8026C137.767 15.8758 137.617 15.0984 137.318 14.4406C137.019 13.7829 136.541 13.2746 135.853 12.9158C135.494 12.7364 135.166 12.6168 134.807 12.5271C134.448 12.4673 133.91 12.4374 133.192 12.4374H132.355V21.1678H133.192C133.97 21.1678 134.568 21.1379 134.926 21.0482C135.285 20.9585 135.674 20.8389 136.003 20.6296C136.601 20.2409 137.049 19.7625 137.318 19.1347C137.617 18.5068 137.767 17.7295 137.767 16.8026Z" fill="white"/>
<path d="M149.457 22.6928C149.277 22.8423 149.098 22.9918 148.829 23.201C148.59 23.3804 148.351 23.5598 148.141 23.6495C147.842 23.799 147.513 23.9186 147.185 23.9784C146.856 24.0382 146.497 24.098 146.108 24.098C145.181 24.098 144.434 23.799 143.806 23.1711C143.178 22.5433 142.879 21.7659 142.879 20.7793C142.879 20.0019 143.029 19.3741 143.358 18.8957C143.686 18.4173 144.135 18.0286 144.703 17.7296C145.271 17.4606 145.989 17.2513 146.856 17.1317C147.723 17.0121 148.59 16.9224 149.517 16.8626V16.8028C149.517 16.2048 149.307 15.7863 148.859 15.577C148.41 15.3378 147.782 15.2481 146.915 15.2481C146.407 15.2481 145.869 15.3378 145.271 15.5471C144.703 15.7564 144.284 15.9059 144.015 15.9955H143.746V13.4542C144.075 13.3645 144.613 13.2449 145.331 13.1253C146.078 13.0057 146.796 12.916 147.543 12.916C149.307 12.916 150.593 13.215 151.37 13.813C152.148 14.4109 152.536 15.3378 152.536 16.6234V23.799H149.457V22.6928ZM149.457 21.0484V18.8658C149.038 18.8957 148.59 18.9555 148.081 19.0153C147.603 19.0751 147.214 19.1648 146.975 19.2545C146.676 19.3741 146.437 19.5236 146.258 19.7328C146.078 19.9421 146.018 20.2112 146.018 20.5401C146.018 20.7494 146.048 20.9288 146.078 21.0783C146.108 21.2278 146.198 21.3473 146.347 21.4669C146.467 21.5865 146.646 21.6762 146.826 21.736C147.005 21.7958 147.304 21.8257 147.693 21.8257C147.992 21.8257 148.321 21.7659 148.62 21.6164C148.919 21.4669 149.188 21.2876 149.457 21.0484Z" fill="white"/>
<path d="M161.566 23.7092C161.237 23.7989 160.878 23.8886 160.519 23.9185C160.16 23.9783 159.682 24.0082 159.144 24.0082C157.948 24.0082 157.051 23.7391 156.453 23.201C155.855 22.6628 155.556 21.7659 155.556 20.4802V15.547H154.271V13.2448H155.556V10.2251H158.695V13.2448H161.566V15.547H158.695V19.2843C158.695 19.6431 158.695 19.972 158.695 20.2709C158.695 20.54 158.755 20.7792 158.845 21.0184C158.935 21.2277 159.054 21.4071 159.264 21.5267C159.473 21.6463 159.772 21.7061 160.131 21.7061C160.28 21.7061 160.489 21.6762 160.758 21.5865C161.028 21.5267 161.207 21.437 161.297 21.3772H161.566V23.7092V23.7092Z" fill="white"/>
<path d="M169.339 22.6928C169.16 22.8423 168.981 22.9918 168.711 23.201C168.472 23.3804 168.233 23.5598 168.024 23.6495C167.725 23.799 167.396 23.9186 167.067 23.9784C166.738 24.0382 166.379 24.098 165.991 24.098C165.064 24.098 164.316 23.799 163.689 23.1711C163.061 22.5433 162.762 21.7659 162.762 20.7793C162.762 20.0019 162.911 19.3741 163.24 18.8957C163.539 18.4173 164.017 18.0286 164.586 17.7296C165.154 17.4606 165.871 17.2513 166.738 17.1317C167.575 17.0121 168.472 16.9224 169.399 16.8626V16.8028C169.399 16.2048 169.19 15.7863 168.741 15.577C168.293 15.3378 167.665 15.2481 166.798 15.2481C166.29 15.2481 165.752 15.3378 165.154 15.5471C164.586 15.7564 164.167 15.9059 163.898 15.9955H163.629V13.4542C163.958 13.3645 164.496 13.2449 165.243 13.1253C165.991 13.0057 166.708 12.916 167.456 12.916C169.22 12.916 170.505 13.215 171.283 13.813C172.06 14.4109 172.449 15.3378 172.449 16.6234V23.799H169.369V22.6928H169.339ZM169.339 21.0484V18.8658C168.921 18.8957 168.472 18.9555 167.964 19.0153C167.486 19.0751 167.097 19.1648 166.858 19.2545C166.559 19.3741 166.32 19.5236 166.14 19.7328C165.991 19.9421 165.901 20.2112 165.901 20.5401C165.901 20.7494 165.931 20.9288 165.961 21.0783C165.991 21.2278 166.08 21.3473 166.23 21.4669C166.379 21.5865 166.529 21.6762 166.708 21.736C166.888 21.7958 167.187 21.8257 167.575 21.8257C167.874 21.8257 168.203 21.7659 168.502 21.6164C168.801 21.4669 169.1 21.2876 169.339 21.0484Z" fill="white"/>
<path d="M188.594 19.4341C188.594 20.8094 187.996 21.9455 186.83 22.8126C185.634 23.6796 184.049 24.0982 182.046 24.0982C180.88 24.0982 179.864 24.0085 178.996 23.7992C178.129 23.5899 177.322 23.3508 176.575 23.0219V19.6733H176.963C177.711 20.2712 178.548 20.7197 179.475 21.0486C180.402 21.3775 181.299 21.527 182.166 21.527C182.375 21.527 182.674 21.4971 183.033 21.4672C183.392 21.4373 183.691 21.3775 183.9 21.2878C184.169 21.1682 184.408 21.0187 184.587 20.8692C184.767 20.6898 184.857 20.4506 184.857 20.1217C184.857 19.8228 184.737 19.5537 184.468 19.3145C184.199 19.1052 183.81 18.9258 183.332 18.8062C182.794 18.6866 182.225 18.567 181.657 18.4474C181.059 18.3278 180.521 18.2082 179.983 18.0289C178.787 17.6402 177.92 17.1319 177.412 16.4741C176.904 15.8164 176.635 15.0091 176.635 14.0225C176.635 12.707 177.232 11.6306 178.399 10.8234C179.565 9.9862 181.089 9.56763 182.913 9.56763C183.84 9.56763 184.767 9.65732 185.664 9.83671C186.561 10.0161 187.368 10.2553 188.026 10.5244V13.6936H187.637C187.069 13.2451 186.381 12.8564 185.574 12.5575C184.737 12.2585 183.9 12.109 183.063 12.109C182.764 12.109 182.465 12.1389 182.166 12.1688C181.867 12.1987 181.568 12.2884 181.299 12.408C181.059 12.4977 180.82 12.6472 180.671 12.8265C180.491 13.0059 180.402 13.2451 180.402 13.4843C180.402 13.8431 180.551 14.1421 180.82 14.3215C181.089 14.5307 181.628 14.7101 182.435 14.8596C182.943 14.9792 183.451 15.0689 183.93 15.1586C184.408 15.2483 184.916 15.3978 185.455 15.5772C186.531 15.936 187.338 16.4143 187.846 17.0123C188.325 17.6701 188.594 18.4474 188.594 19.4341Z" fill="#3F3E91"/>
<path d="M201.33 18.5369C201.33 20.271 200.852 21.6463 199.925 22.633C198.998 23.6196 197.683 24.1279 196.008 24.1279C194.334 24.1279 193.019 23.6196 192.092 22.633C191.165 21.6463 190.687 20.271 190.687 18.5369C190.687 16.7729 191.165 15.3976 192.092 14.4109C193.019 13.4243 194.334 12.916 195.979 12.916C197.683 12.916 198.968 13.4243 199.895 14.4109C200.852 15.4275 201.33 16.8028 201.33 18.5369ZM197.503 21.1082C197.713 20.8391 197.862 20.5102 197.952 20.1215C198.042 19.7328 198.101 19.2246 198.101 18.5369C198.101 17.909 198.042 17.4008 197.952 16.9822C197.832 16.5636 197.713 16.2347 197.503 15.9656C197.324 15.6966 197.115 15.5172 196.846 15.4275C196.576 15.3079 196.307 15.278 196.008 15.278C195.709 15.278 195.44 15.3079 195.201 15.3976C194.962 15.4873 194.753 15.6667 194.543 15.9357C194.364 16.1749 194.215 16.5038 194.095 16.9523C193.975 17.3709 193.916 17.909 193.916 18.5668C193.916 19.1349 193.975 19.6431 194.065 20.0617C194.155 20.4803 194.304 20.8391 194.484 21.0783C194.663 21.3175 194.902 21.4968 195.141 21.6164C195.41 21.736 195.68 21.7958 196.038 21.7958C196.307 21.7958 196.576 21.736 196.846 21.6463C197.085 21.5267 197.324 21.3473 197.503 21.1082Z" fill="#3F3E91"/>
<path d="M211.257 11.6601H211.047C210.898 11.6003 210.719 11.5704 210.509 11.5106C210.3 11.4508 210.061 11.4209 209.792 11.4209C209.164 11.4209 208.775 11.5405 208.566 11.7797C208.357 12.0189 208.237 12.4674 208.237 13.155V13.2447H210.629V15.5469H208.357V23.8287H205.217V15.5469H203.872V13.2447H205.217V12.9457C205.217 11.6302 205.546 10.6735 206.144 10.0157C206.772 9.35794 207.729 9.02905 209.014 9.02905C209.493 9.02905 209.911 9.05895 210.27 9.08885C210.659 9.11875 210.988 9.17855 211.257 9.23834V11.6601V11.6601Z" fill="#3F3E91"/>
<path d="M220.077 23.7092C219.748 23.7989 219.389 23.8886 219.03 23.9185C218.671 23.9783 218.193 24.0082 217.655 24.0082C216.459 24.0082 215.562 23.7391 214.964 23.201C214.366 22.6628 214.067 21.7659 214.067 20.4802V15.547H212.781V13.2448H214.067V10.2251H217.206V13.2448H220.107V15.547H217.206V19.2843C217.206 19.6431 217.206 19.972 217.206 20.2709C217.206 20.54 217.266 20.7792 217.326 21.0184C217.416 21.2277 217.565 21.4071 217.745 21.5267C217.954 21.6463 218.253 21.7061 218.642 21.7061C218.791 21.7061 219 21.6762 219.269 21.5865C219.539 21.5267 219.718 21.437 219.808 21.3772H220.077V23.7092V23.7092Z" fill="#3F3E91"/>
<path d="M227.551 4.06617V1.22583H228.956C229.226 1.22583 229.435 1.25573 229.584 1.31553C229.734 1.37533 229.853 1.46502 229.943 1.58461C230.033 1.70421 230.063 1.8537 230.063 2.00319C230.063 2.21248 230.003 2.36197 229.853 2.51146C229.704 2.66096 229.495 2.75065 229.196 2.78055C229.315 2.84034 229.405 2.87024 229.435 2.93004C229.554 3.01973 229.674 3.16922 229.794 3.31871L230.332 4.09607H229.824L229.405 3.49811C229.285 3.31872 229.196 3.19913 229.106 3.10943C229.016 3.01974 228.956 2.95994 228.897 2.93004C228.837 2.90014 228.777 2.87025 228.717 2.84035C228.687 2.84035 228.598 2.84035 228.478 2.84035H228V4.09607H227.551V4.06617ZM227.97 2.48156H228.867C229.046 2.48156 229.196 2.45166 229.315 2.42176C229.435 2.39187 229.495 2.33208 229.554 2.24238C229.614 2.15269 229.644 2.06298 229.644 1.97329C229.644 1.8537 229.584 1.73411 229.495 1.64441C229.375 1.55472 229.226 1.52481 228.986 1.52481H228V2.48156H227.97Z" fill="#231F20"/>
<path d="M228.807 5.11236C227.372 5.11236 226.206 4.03602 226.206 2.75039C226.206 1.43487 227.372 0.388428 228.807 0.388428C230.242 0.388428 231.438 1.43487 231.438 2.75039C231.438 4.03602 230.242 5.11236 228.807 5.11236ZM228.807 0.717311C227.581 0.717311 226.565 1.61426 226.565 2.75039C226.565 3.88653 227.581 4.78349 228.807 4.78349C230.033 4.78349 231.049 3.85663 231.049 2.75039C231.049 1.61426 230.033 0.717311 228.807 0.717311Z" fill="#231F20"/>
<path d="M228.149 8.87964L237.747 24.5763L235.444 32.888L226.654 17.5502L228.149 8.87964Z" fill="#231F20"/>
<path d="M238.464 24.9649L256.971 16.4438L253.354 24.9649L236.042 32.8879L238.464 24.9649Z" fill="#231F20"/>
<path d="M228.957 8.61072L247.434 0L257.061 15.8162L238.255 24.2774L228.957 8.61072Z" fill="white"/>
<path d="M247.434 0L228.957 8.61072L238.255 24.2774L257.061 15.8162L247.434 0ZM246.208 3.07952L246.776 4.06617L244.145 5.292L244.773 6.39824L247.254 5.23221L247.822 6.18895L245.341 7.35498L246.058 8.61072L248.809 7.32509L249.377 8.31173L245.072 10.3149L242.052 5.02292L246.208 3.07952ZM232.933 9.26848L234.697 8.43132L237.208 9.71696C237.926 10.0757 238.703 10.5541 239.331 11.0026H239.361C238.853 10.3448 238.434 9.65716 237.956 8.8798L237.059 7.32509L238.464 6.66732L241.484 11.9294L239.899 12.6769L237.298 11.3315C236.581 10.9428 235.743 10.4644 235.056 10.0159L235.026 10.0458C235.474 10.7335 235.923 11.4511 236.401 12.3181L237.328 13.9027L235.923 14.5605L232.933 9.26848ZM243.906 19.6731L242.74 19.0153C242.291 18.7761 241.962 18.5669 241.604 18.3576H241.574C241.604 18.7164 241.604 19.0751 241.604 19.5535V20.7793L239.869 21.5866L240.288 17.9988L236.91 16.2647L238.644 15.4574L239.78 16.1451C240.168 16.3843 240.467 16.5637 240.796 16.773H240.826C240.796 16.3544 240.796 16.0554 240.766 15.6966L240.796 14.4708L242.53 13.6635L242.112 17.1317L245.67 18.8957L243.906 19.6731ZM247.852 12.4078L246.058 13.245L245.49 12.2583L250.663 9.83655L251.231 10.8531L249.407 11.7201L251.859 15.9956L250.334 16.7132L247.852 12.4078Z" fill="#231F20"/>
<path d="M4.806 13.22H7.326L12.024 26H9.468L8.28 22.814H3.816L2.646 26H0.09L4.806 13.22ZM7.83 21.068L6.066 15.794L4.23 21.068H7.83ZM22.6055 26.18C21.8735 26.18 21.2255 26.018 20.6615 25.694C20.1095 25.358 19.6775 24.908 19.3655 24.344V29.834H16.9535V16.568H19.0595V18.188C19.4195 17.636 19.8755 17.204 20.4275 16.892C20.9795 16.568 21.6095 16.406 22.3175 16.406C22.9535 16.406 23.5355 16.532 24.0635 16.784C24.6035 17.036 25.0715 17.39 25.4675 17.846C25.8635 18.29 26.1695 18.806 26.3855 19.394C26.6135 19.97 26.7275 20.594 26.7275 21.266C26.7275 22.178 26.5475 23.006 26.1875 23.75C25.8395 24.494 25.3535 25.088 24.7295 25.532C24.1175 25.964 23.4095 26.18 22.6055 26.18ZM21.7955 24.128C22.1675 24.128 22.5035 24.05 22.8035 23.894C23.1035 23.738 23.3615 23.528 23.5775 23.264C23.8055 22.988 23.9735 22.682 24.0815 22.346C24.2015 21.998 24.2615 21.638 24.2615 21.266C24.2615 20.87 24.1955 20.504 24.0635 20.168C23.9435 19.832 23.7635 19.538 23.5235 19.286C23.2835 19.022 23.0015 18.818 22.6775 18.674C22.3655 18.53 22.0235 18.458 21.6515 18.458C21.4235 18.458 21.1895 18.5 20.9495 18.584C20.7215 18.656 20.4995 18.764 20.2835 18.908C20.0675 19.052 19.8755 19.22 19.7075 19.412C19.5515 19.604 19.4375 19.814 19.3655 20.042V22.256C19.5095 22.604 19.7015 22.922 19.9415 23.21C20.1935 23.498 20.4815 23.726 20.8055 23.894C21.1295 24.05 21.4595 24.128 21.7955 24.128ZM33.9777 18.656C33.2457 18.656 32.5917 18.8 32.0157 19.088C31.4397 19.364 31.0257 19.766 30.7737 20.294V26H28.3617V16.568H30.5757V18.584C30.9117 17.936 31.3377 17.426 31.8537 17.054C32.3697 16.682 32.9157 16.478 33.4917 16.442C33.6237 16.442 33.7257 16.442 33.7977 16.442C33.8697 16.442 33.9297 16.448 33.9777 16.46V18.656ZM39.5556 26.18C38.7876 26.18 38.0976 26.054 37.4856 25.802C36.8736 25.538 36.3516 25.178 35.9196 24.722C35.4996 24.266 35.1756 23.744 34.9476 23.156C34.7196 22.568 34.6056 21.95 34.6056 21.302C34.6056 20.642 34.7196 20.018 34.9476 19.43C35.1756 18.842 35.4996 18.32 35.9196 17.864C36.3516 17.408 36.8736 17.054 37.4856 16.802C38.0976 16.538 38.7876 16.406 39.5556 16.406C40.3236 16.406 41.0076 16.538 41.6076 16.802C42.2196 17.054 42.7416 17.408 43.1736 17.864C43.6056 18.32 43.9296 18.842 44.1456 19.43C44.3736 20.018 44.4876 20.642 44.4876 21.302C44.4876 21.95 44.3736 22.568 44.1456 23.156C43.9296 23.744 43.6056 24.266 43.1736 24.722C42.7536 25.178 42.2376 25.538 41.6256 25.802C41.0136 26.054 40.3236 26.18 39.5556 26.18ZM37.0896 21.302C37.0896 21.854 37.1976 22.346 37.4136 22.778C37.6296 23.198 37.9236 23.528 38.2956 23.768C38.6676 24.008 39.0876 24.128 39.5556 24.128C40.0116 24.128 40.4256 24.008 40.7976 23.768C41.1696 23.516 41.4636 23.18 41.6796 22.76C41.9076 22.328 42.0216 21.836 42.0216 21.284C42.0216 20.744 41.9076 20.258 41.6796 19.826C41.4636 19.394 41.1696 19.058 40.7976 18.818C40.4256 18.578 40.0116 18.458 39.5556 18.458C39.0876 18.458 38.6676 18.584 38.2956 18.836C37.9236 19.076 37.6296 19.412 37.4136 19.844C37.1976 20.264 37.0896 20.75 37.0896 21.302ZM45.5396 21.284C45.5396 20.372 45.7196 19.55 46.0796 18.818C46.4396 18.074 46.9376 17.486 47.5736 17.054C48.2096 16.622 48.9356 16.406 49.7516 16.406C50.4476 16.406 51.0716 16.58 51.6236 16.928C52.1876 17.264 52.6256 17.696 52.9376 18.224V12.86H55.3496V23.3C55.3496 23.552 55.3916 23.732 55.4756 23.84C55.5596 23.948 55.7036 24.014 55.9076 24.038V26C55.4876 26.084 55.1456 26.126 54.8816 26.126C54.4496 26.126 54.0896 26.018 53.8016 25.802C53.5256 25.586 53.3696 25.304 53.3336 24.956L53.2976 24.362C52.9496 24.95 52.4756 25.4 51.8756 25.712C51.2876 26.024 50.6696 26.18 50.0216 26.18C49.3736 26.18 48.7736 26.054 48.2216 25.802C47.6816 25.55 47.2076 25.202 46.7996 24.758C46.4036 24.314 46.0916 23.798 45.8636 23.21C45.6476 22.61 45.5396 21.968 45.5396 21.284ZM52.9376 22.544V20.294C52.8176 19.946 52.6256 19.634 52.3616 19.358C52.0976 19.082 51.8036 18.866 51.4796 18.71C51.1556 18.542 50.8316 18.458 50.5076 18.458C50.1356 18.458 49.7996 18.536 49.4996 18.692C49.1996 18.848 48.9356 19.058 48.7076 19.322C48.4916 19.586 48.3236 19.892 48.2036 20.24C48.0956 20.588 48.0416 20.954 48.0416 21.338C48.0416 21.722 48.1016 22.088 48.2216 22.436C48.3536 22.772 48.5396 23.066 48.7796 23.318C49.0196 23.57 49.2956 23.768 49.6076 23.912C49.9316 24.056 50.2796 24.128 50.6516 24.128C50.8796 24.128 51.1076 24.092 51.3356 24.02C51.5756 23.936 51.7976 23.828 52.0016 23.696C52.2176 23.552 52.4036 23.384 52.5596 23.192C52.7276 22.988 52.8536 22.772 52.9376 22.544ZM57.6271 22.472V16.568H60.0391V21.95C60.0391 22.67 60.1711 23.216 60.4351 23.588C60.6991 23.948 61.0891 24.128 61.6051 24.128C61.9171 24.128 62.2231 24.068 62.5231 23.948C62.8351 23.816 63.1171 23.624 63.3691 23.372C63.6331 23.12 63.8551 22.802 64.0351 22.418V16.568H66.4471V23.3C66.4471 23.552 66.4891 23.732 66.5731 23.84C66.6691 23.948 66.8191 24.014 67.0231 24.038V26C66.7831 26.036 66.5791 26.06 66.4111 26.072C66.2551 26.096 66.1111 26.108 65.9791 26.108C65.5471 26.108 65.1931 26.012 64.9171 25.82C64.6531 25.616 64.4971 25.34 64.4491 24.992L64.3951 24.236C63.9751 24.872 63.4351 25.358 62.7751 25.694C62.1151 26.018 61.3891 26.18 60.5971 26.18C59.6251 26.18 58.8871 25.868 58.3831 25.244C57.8791 24.608 57.6271 23.684 57.6271 22.472ZM73.2361 26.18C72.4681 26.18 71.7781 26.054 71.1661 25.802C70.5541 25.538 70.0321 25.178 69.6001 24.722C69.1681 24.254 68.8321 23.726 68.5921 23.138C68.3641 22.55 68.2501 21.932 68.2501 21.284C68.2501 20.396 68.4481 19.586 68.8441 18.854C69.2521 18.11 69.8281 17.516 70.5721 17.072C71.3161 16.628 72.1981 16.406 73.2181 16.406C74.2381 16.406 75.1141 16.628 75.8461 17.072C76.5781 17.516 77.1241 18.098 77.4841 18.818L75.1261 19.538C74.9221 19.19 74.6521 18.926 74.3161 18.746C73.9801 18.554 73.6081 18.458 73.2001 18.458C72.7441 18.458 72.3241 18.578 71.9401 18.818C71.5681 19.046 71.2741 19.376 71.0581 19.808C70.8421 20.228 70.7341 20.72 70.7341 21.284C70.7341 21.836 70.8421 22.328 71.0581 22.76C71.2861 23.18 71.5861 23.516 71.9581 23.768C72.3301 24.008 72.7441 24.128 73.2001 24.128C73.4881 24.128 73.7581 24.08 74.0101 23.984C74.2741 23.888 74.5081 23.756 74.7121 23.588C74.9161 23.42 75.0661 23.228 75.1621 23.012L77.5201 23.732C77.3041 24.2 76.9861 24.62 76.5661 24.992C76.1581 25.364 75.6721 25.658 75.1081 25.874C74.5561 26.078 73.9321 26.18 73.2361 26.18ZM84.6563 25.514C84.4523 25.598 84.2063 25.694 83.9183 25.802C83.6303 25.91 83.3183 25.994 82.9823 26.054C82.6583 26.126 82.3283 26.162 81.9923 26.162C81.5483 26.162 81.1403 26.084 80.7683 25.928C80.3963 25.772 80.0963 25.526 79.8683 25.19C79.6523 24.842 79.5443 24.392 79.5443 23.84V18.422H78.3023V16.568H79.5443V13.508H81.9563V16.568H83.9363V18.422H81.9563V23.03C81.9683 23.354 82.0583 23.588 82.2263 23.732C82.3943 23.876 82.6043 23.948 82.8563 23.948C83.1083 23.948 83.3543 23.906 83.5943 23.822C83.8343 23.738 84.0263 23.666 84.1703 23.606L84.6563 25.514ZM95.6007 26.18C94.8807 26.18 94.2387 26.018 93.6747 25.694C93.1107 25.37 92.6667 24.926 92.3427 24.362V26H90.2367V12.86H92.6487V18.224C92.9847 17.66 93.4227 17.216 93.9627 16.892C94.5147 16.568 95.1567 16.406 95.8887 16.406C96.5007 16.406 97.0587 16.538 97.5627 16.802C98.0667 17.054 98.4987 17.408 98.8587 17.864C99.2307 18.32 99.5127 18.842 99.7047 19.43C99.9087 20.018 100.011 20.648 100.011 21.32C100.011 21.992 99.8967 22.622 99.6687 23.21C99.4527 23.798 99.1467 24.32 98.7507 24.776C98.3547 25.22 97.8867 25.568 97.3467 25.82C96.8187 26.06 96.2367 26.18 95.6007 26.18ZM94.9347 24.128C95.3187 24.128 95.6667 24.056 95.9787 23.912C96.3027 23.756 96.5787 23.552 96.8067 23.3C97.0467 23.048 97.2267 22.754 97.3467 22.418C97.4787 22.07 97.5447 21.71 97.5447 21.338C97.5447 20.822 97.4367 20.348 97.2207 19.916C97.0167 19.472 96.7287 19.118 96.3567 18.854C95.9967 18.59 95.5707 18.458 95.0787 18.458C94.7307 18.458 94.3947 18.542 94.0707 18.71C93.7587 18.866 93.4767 19.082 93.2247 19.358C92.9847 19.634 92.7927 19.946 92.6487 20.294V22.544C92.7207 22.784 92.8347 23 92.9907 23.192C93.1587 23.384 93.3507 23.552 93.5667 23.696C93.7827 23.828 94.0047 23.936 94.2327 24.02C94.4727 24.092 94.7067 24.128 94.9347 24.128ZM101.526 27.836C101.742 27.884 101.94 27.926 102.12 27.962C102.312 27.998 102.474 28.016 102.606 28.016C102.834 28.016 103.02 27.956 103.164 27.836C103.32 27.728 103.47 27.524 103.614 27.224C103.758 26.936 103.908 26.528 104.064 26L100.338 16.568H102.84L105.378 23.534L107.61 16.568H109.914L105.954 27.872C105.81 28.292 105.588 28.67 105.288 29.006C105 29.354 104.634 29.624 104.19 29.816C103.758 30.02 103.272 30.122 102.732 30.122C102.54 30.122 102.348 30.104 102.156 30.068C101.964 30.044 101.754 29.996 101.526 29.924V27.836Z" fill="#444444"/>
</svg>
