<svg width="21" height="21" viewBox="0 0 21 21" fill="none" xmlns="http://www.w3.org/2000/svg">
<path d="M12.9072 9.9269L20.6942 2.1389C20.9045 1.88994 21.0137 1.57106 21 1.24544C20.9863 0.919817 20.8508 0.611213 20.6204 0.380762C20.3899 0.150311 20.0813 0.0148256 19.7557 0.00114654C19.4301 -0.0125326 19.1112 0.0965927 18.8622 0.306904L11.0742 8.0949L3.28725 0.306904C3.03828 0.0965927 2.71937 -0.0125326 2.39375 0.00114654C2.06814 0.0148256 1.75955 0.150311 1.5291 0.380762C1.29865 0.611213 1.16317 0.919817 1.14949 1.24544C1.13581 1.57106 1.24494 1.88994 1.45525 2.1389L9.24324 9.9269L1.45525 17.7149C1.31781 17.831 1.20596 17.9744 1.12679 18.1359C1.04761 18.2975 1.00284 18.4737 0.995287 18.6534C0.987736 18.8332 1.01756 19.0125 1.0829 19.1802C1.14825 19.3478 1.24768 19.5 1.37489 19.6272C1.50211 19.7545 1.65436 19.8539 1.82198 19.9192C1.9896 19.9846 2.16896 20.0144 2.34871 20.0069C2.52846 19.9993 2.70468 19.9545 2.86623 19.8754C3.02778 19.7962 3.17115 19.6843 3.28725 19.5469L11.0742 11.7569L18.8622 19.5449C19.1112 19.7552 19.4301 19.8643 19.7557 19.8507C20.0813 19.837 20.3899 19.7015 20.6204 19.471C20.8508 19.2406 20.9863 18.932 21 18.6064C21.0137 18.2808 20.9045 17.9619 20.6942 17.7129L12.9072 9.9269Z" fill="white"/>
</svg>
